/* XPM */
static char *_1b13959c8874f1894a6e53f0505605cyiA2dZzKGAjlx34c[] = {
/* columns rows colors chars-per-pixel */
"64 84 195 2 ",
"   c None",
".  c #181818",
"X  c #231E1B",
"o  c #25201D",
"O  c #2C221E",
"+  c #31251F",
"@  c #2F2B25",
"#  c #2F2E2C",
"$  c #2F2621",
"%  c #342620",
"&  c #352923",
"*  c #3B2A22",
"=  c #302F2D",
"-  c #3F3027",
";  c #3E332A",
":  c #432E24",
">  c #443127",
",  c #4B3227",
"<  c #433228",
"1  c #4D3429",
"2  c #4B3A2E",
"3  c #533629",
"4  c #55392C",
"5  c #5C3A2C",
"6  c #443C31",
"7  c #4B3930",
"8  c #543E31",
"9  c #5A3F30",
"0  c #633E2E",
"q  c #4D4437",
"w  c #544335",
"e  c #5D4333",
"r  c #554B3C",
"t  c #594D3C",
"y  c #504638",
"u  c #67402F",
"i  c #69402F",
"p  c #644332",
"a  c #6D4331",
"s  c #674837",
"d  c #6E4D3A",
"f  c #664B3A",
"g  c #734632",
"h  c #744935",
"j  c #7C4B35",
"k  c #734E3B",
"l  c #7B4E39",
"z  c #63503E",
"x  c #75513D",
"c  c #7D533D",
"v  c #645744",
"b  c #6B5945",
"n  c #7E5C48",
"m  c #72624B",
"M  c #7C624A",
"N  c #7B6855",
"B  c #716E68",
"V  c #726E67",
"C  c #844E37",
"Z  c #844F38",
"A  c #85523B",
"S  c #895139",
"D  c #8D583F",
"F  c #90573D",
"G  c #93593E",
"H  c #855740",
"J  c #845B43",
"K  c #8B5C44",
"L  c #955C41",
"P  c #9A5E42",
"I  c #846149",
"U  c #8B6349",
"Y  c #8C694E",
"T  c #8D6146",
"R  c #966145",
"E  c #9C6245",
"W  c #9D6548",
"Q  c #93694D",
"!  c #9D6A4C",
"~  c #926348",
"^  c #8D6D51",
"/  c #9D6E50",
"(  c #867357",
")  c #8E795D",
"_  c #947255",
"`  c #957759",
"'  c #927B5C",
"]  c #9D7354",
"[  c #A26547",
"{  c #A56748",
"}  c #A46A4C",
"|  c #AA6B4B",
" . c #B06F4E",
".. c #AF704F",
"X. c #B2714F",
"o. c #A76F50",
"O. c #A37353",
"+. c #AB7453",
"@. c #AC7957",
"#. c #AD7B58",
"$. c #A47958",
"%. c #B47452",
"&. c #B97653",
"*. c #B67956",
"=. c #BC7956",
"-. c #B37D59",
";. c #BC7D59",
":. c #897F70",
">. c #997461",
",. c #C07B57",
"<. c #C27D58",
"1. c #B5825D",
"2. c #BB825D",
"3. c #9B8362",
"4. c #A68A67",
"5. c #AA8C68",
"6. c #B48561",
"7. c #B98761",
"8. c #BC8A64",
"9. c #B48C66",
"0. c #BD936B",
"q. c #B3906A",
"w. c #B88D75",
"e. c #BE9D74",
"r. c #B29975",
"t. c #C5815B",
"y. c #CC855E",
"u. c #C58760",
"i. c #C48B64",
"p. c #CB8B63",
"a. c #CA8965",
"s. c #D18961",
"d. c #D18E69",
"f. c #C4936A",
"g. c #CA946B",
"h. c #C7996F",
"j. c #CB996F",
"k. c #C99067",
"l. c #D59167",
"z. c #D6946B",
"x. c #D8976B",
"c. c #D59A6E",
"v. c #DA9A6E",
"b. c #C59A71",
"n. c #CC9D72",
"m. c #D39E72",
"M. c #DB9E71",
"N. c #D29E7F",
"B. c #CAA97D",
"V. c #C1A378",
"C. c #D4A275",
"Z. c #DDA174",
"A. c #D4A679",
"S. c #DCA778",
"D. c #D5A87A",
"F. c #DBAC7C",
"G. c #DFB07F",
"H. c #E1A577",
"J. c #E4AC7C",
"K. c #E1A678",
"L. c #E6B07F",
"P. c #A69181",
"I. c #B4AEA3",
"U. c #CEAE80",
"Y. c #DCB484",
"T. c #DDBA8A",
"R. c #D8B585",
"E. c #D4BE9E",
"W. c #D3AE95",
"Q. c #E4B382",
"!. c #E9B583",
"~. c #E5B987",
"^. c #EBB986",
"/. c #E4BC8A",
"(. c #EDBE8A",
"). c #E1B395",
"_. c #E5B895",
"`. c #C0B4A1",
"'. c #D4BCAA",
"]. c #EEC18C",
"[. c #E7C08C",
"{. c #F1C38E",
"}. c #EEC591",
"|. c #E8C89B",
" X c #F2C690",
".X c #F5CC95",
"XX c #F8CF97",
"oX c #F7CF98",
"OX c #F8D098",
"+X c #F5D3A6",
"@X c #ECD2BB",
"#X c #EED2B5",
"$X c #F7E0BD",
"%X c #F6EEDE",
"&X c #F7E9D2",
/* pixels */
"                          S Z S S S S [ X.t.s.s.s.y.X.[ S S S S S S                                                             ",
"                          S S S S S S G X.t.s.y.y.y.X.[ S S S S S S                                                             ",
"                          +.o.} O.} O.*.t.z.v.v.v.c.p.*.O.} W E G G                                                             ",
"                S [ %.y.p.k.f.h.h.f.f.j.S.L.L.L.L.J.S.C.f.8.2.X.| [ P S S S S                                                   ",
"              S S [ %.y.z.S.Q.~./././.].].{. X{.{.{.].]./.F.c.p.=.| G S S S S S                                                 ",
"            F F G } ;.s.Z.L.{.OXOXOXOXOXoXOXOXOXOXoXOXOXOX].J.v.p.=.{ G F S S S                                                 ",
"          F P [ | =.k.Z.L.(..XXXOXOXOXOXOXOXOXOXOXOXOXOXOX{.^.J.v.p.&.{ E G S S                                                 ",
"        S F [ %.=.k.Z.!.{. X.XOXOXOXOXOXOXOXOXOXOXOXOXOXOX.X{.{.L.Z.p.&.| E S S                                                 ",
"      Z S G | =.s.S.!..XXXXXXXOXOXOXOXOXOXOXOXOXOXOXOXOXOXOXOXOX XQ.v.p.&.{ D S                                                 ",
"      S S G ..i.H.L.(..XXXXXOXOXOXOXOXOXOXOXOXOXOXOXOXOXOXOXOXOX X^.J.v.p.*.{ E P                                               ",
"      S S L #.j.!.^.{.XXOXOXOXOXOXOXOXOXOXOXOXOXOXOXOXOXOXOXOXOX.X{.(.!.Z.i.&. .[ G S                                           ",
"      Z S R 7.D..X.XXXOXOXOXOXOXOXOXOXOXOXOXOXOXOXOXOXOXOXOXOXOXOX.X.X.XL.M.y.,.| G S S                                         ",
"      S S R 7.F.OXOXOXOXOXOXOXOXOXOXOXOXOXOXOXOXOXOXOXOXOXOXOXOXXX X{.].J.v.s.<.| G S S                                         ",
"      S S R 7.F.OXOXOXOXOXOXOXOXOXOXOXOXOXOXOXOXOXOXOXOXOXOXOXOX.X{.!.K.Z.x.s.,.| G S S                                         ",
"      S S R 7.G.OXOXOXOXOXOXOXOXOXOXOXOXOXOXOXOXOXOXOXOXOXOXOXOX{.!.H.z.l.s.s.,.| G S S                                         ",
"      S S R 7.F.OXOXOXOXOXOXOXOXOXOXOXOXOXOXoX.X.X X X X[.].[.].^.K.c.s.s.s.s.<.| G S S                                         ",
"      S S R 7.F.OXOXOXOXOXOXOXOXOXOXOXOXOXOX.X{.^.Q.F.C.n.b.n.b.j.g.p.s.s.s.s.,.| G S S                                         ",
"      S Z R 7.F.OXOXOXOXOXOXOXOXOXOXOXOXOXOX X!.K.v.p.2.@.+.+.+.*.;.t.s.y.s.s.,.| G S Z                                         ",
"      S S R 7.F.OXOXOXOXOXOXOXOXOXOXOXOXOXOX{.J.v.y.%.[ S S S S G } =.s.s.s.s.,.| G S S                                         ",
"      0 0 c ] b.^.{. XXXOXOXOXOXOXOXOX.X{.^.L.c.u.&.%.@.@.@.+.@.+.%.&.=.<.t.y.&.R j u 0                                         ",
"      : : e I 1.H.L.{..XOXOXoXoXOXOXoX].!.J.c.t.%.} *.8.b.n.n.n.h.2.@.} %.,.y.%.K 5 > :                                         ",
"      X X * d O.z.K.!..XOXOXOXoXOXOXOX].J.v.y.%.[ L -.n.(.}.].].Y.i.o.G [ &.y.o.k < X X                                         ",
"      . . $ s ! s.v.J.(.].^.~.~.~.~.~.S.v.l.t.*.+.} 8.C.(. X.XXX~.0.Q g D } &.W s & . .                                         ",
"      . . % s ! y.z.M.K.S.C.f.f.i.0.f.i.p.p.y.k.i.f.n.C.J.!.]..XY.9.n 4 a D } K p % . .                                         ",
"      . . % f ! s.s.l.x.k.2.+.! ! ! ! ..,.<.z.v.Q.).J.M.c.K.!. XR.3.z + 4 g G l 3 $ . .                                         ",
"      X X & d ! s.s.s.d.t.| D C A K R } ,.<.x.Q.^.(.^.K.l.M.J.(.B.' y . + 5 h i , O . .                                         ",
"      : : 4 A | s.l.v.H.i./ k p n >.w.w.<.d.z.K.(.XX(.!.K.Z.m.m.9.M 2 . O , 5 3 : O .                                           ",
"      0 0 k L %.s.x.H.!.b._ e 2 N P.'.W.U.d.z.Q.(.XX X(.^.S.h.1.Q d ; . o + + + +                                               ",
"      Z Z F } =.s.Z.Q..XB.( 6 # B I.%X@XW.c.l.K.(.OXXXXXXXQ.7.E h 5 + . . . . .                                                 ",
"        S G [ X.=.l.L. XB.( 6 # B I.%X@X).x.d.Q.(.OXXX(.^.j.O.n 5 : + . . . . .                                                 ",
"            P [ | 8.S.}.B.( 6 # B I.%X@X).z.x.K.(.XX(.!.J.7.U 0 : + X . . . . .                                                 ",
"            F F L -.C.}.B.( 6 # B I.%X@X).c.z.Q. XXX^.K.l.+.b : X X . . . . . .                                                 ",
"              Z S @.C. XU.3.v r :.`.&X@X_.M.v.J.^.(.L.v.s.} h < X X X . . . . . O                                               ",
"              S S $.C.[.T.V.3.) r.E.$X+X}.!.J.J.J.J.Z.z.s.+.D e : + X . . . . X * 0                                             ",
"              S D @.C.[.|.T.B.B.T.|.+X+X.X(.^.J.H.x.x.l.p.&.E j 0 , + . . . . O , a S                                           ",
"              C C O.h.[..X.XoXoXoXoXoXoXoXoX(.J.x.s.y.y.y.&.[ D g 3 + X X o O + 5 l L L                                         ",
"              0 0 I $.h.F.~.}.oXoXOXOXoX{.^.J.Z.l.s.t.,.&.W A a 5 3 > : , 4 w d I O.1.8.A.                                      ",
"              * * p I O.8.A.].oXoXOXoX(.Q.K.v.v.s.s.,. .[ D a 1 : , 5 0 h c K O.6.j.D.Y.].OXOXOXOXOX                            ",
"              X . : u j O.f.~.XXXXXXoX(.K.z.s.s.s.y.X.[ D i 3 O O : u S E ..t.l.F.(..X.X.XOXOXOXOXOX                            ",
"            + + + > 4 u H $.h.Y.Y.Y.Y.m.p.t.,.=.=.&.E D i u 4 1 4 a S E | =.y.c.L.].OXOXOXOXOXOXOXOXOX                          ",
"          o * , 3 3 3 , 0 J $.8.7.7.7.-.@.| | } | [ A a , 4 s x J R } X.&.<.s.x.J.{.XXXXOXOXOXOXOXOXOXOX.X!.M.s.                ",
"        . X : 0 g 0 : + : p A R E P E L L L F L G S a 1 O 2 x ! &.;.t.t.y.y.s.x.L.{.XXXXOXOXOXOXOXOXOXXX X!.Z.s.s.              ",
"      . . X , u S 0 1 + * 3 0 g h j h C S F F F F D h w ; z Q t.l.l.s.y.y.t.t.p.C.Q.].].{.{..X.XXXOXXXXX.XL.Z.s.s.s.            ",
"      . . X , u S g 0 1 , , 3 5 3 3 5 a A E | | } } ! Y N ` 9.C.S.v.l.s.t.=.X.&.2.i.j.C.F.L.^.{.XXOXXXXX.X!.Z.s.s.s.s.          ",
"      . . X , i Z C g i 0 3 : + % % % 9 H ..,.=.,.,.8.f.b.B.Y.^.!.H.v.y.,.| [ E ! } +.2.p.v.F.^..XXXXXXX.X!.M.s.s.s.s.s.        ",
"      . . X , 0 C S C S g 3 + . . . . 7 J ;.s.s.s.d.H.!..XOXOXOX{.L.v.y.&.[ S S S C D [ %.y.c.L.{..XXXXX X!.H.s.s.s.s.s.p.      ",
"      . . X * , 0 i g C g 0 , * + X . 8 Y p.H.Z.Z.H.!.].OXOXOXOX{.L.v.s.&.[ S C g u u h H R $.8.C.S.F.!.!.J.H.H.H.Z.Z.c.p.      ",
"      . . X O + : 5 i C C g 0 5 : + . y _ N.!.^.!.^.(. XOXOXXXXX{.L.v.s.&.[ F h 0 , > 1 8 w x U $.7.i.c.H.J.J.!.!.!.^.K.f.+.S S ",
"      . . . . . X : 0 C Z Z C g 5 % . t 3.Y..X.X.X.X.XXXXXXXXXXX{.L.v.y.&.{ S a 3 + . X X X > a A R %.t.l.H.^..X.X.X.X~.f.o.S S ",
"        . . . . . * 3 0 a a a 0 , + . t 3.T.OXOXOXXX.X{.(.{.{.(.!.Z.p.=.} D g 5 * O . . . . * 5 j G [ &.t.c.Q.XX.X{.{.S.6.T a a ",
"                  % : , 1 1 , , * o . t 3.T.OXOXOXXX{.^.J.K.K.J.Z.i.*.} D a 3 : + X . . .         G E | %.f.Q..X X^.L.j.] k , , ",
"                    X O X O O X o . . t 3.T.OXOXOX.X^.H.v.l.z.x.p.;.} D h 3 + X X . . .             G F W 7.D..X{.J.v.2.J 8 O O ",
"                    . . . . . . . . . r ' B././.].{.J.v.s.s.y.t.=.| P C 0 * X . . . . .               S L @.b.R.A.h.2.! k - . . ",
"                      . . . . . . . . q m ) 4.e.D.L.H.x.s.y.=.&.| [ F C 0 : X . . . . .                 D Y ` 3.` ^ J k 8 $ . . ",
"                                        q r b ] 8.M.z.l.s.<.%.[ P G S S 0 * . . . . . .                   f t t y 8 2 ; & X . . ",
"                                        . . & d } s.y.s.y.=.| F Z S S Z 0 : X . . . . .                     . . . . . . . . . . ",
"                                        . . & s G X.,.,.,.| [ F S S S C i 5 : + + X . . .                 . . . . . . . . . . . ",
"                                        . . $ 5 S [ [ { [ P G S Z S S S j i 0 , + X . . . . . . . . . . . . . . . .             ",
"                                        . . O 3 j F F S S F S S S S S S C C j 0 , X . . . . . . . . . . . . . . .               ",
"                                        & ; 3 s S G G P G P P P G F S S C S S g 1 X . . . . . X O O + + O X X . .               ",
"          S S S                     . < e d c L [ | | | | | | | { E F S S C S 0 , + . . . . + + , 1 1 1 , * O . .               ",
"        S S S S S S               . . 2 k } +.&.;.<.<.<.,.,.<.<.,.| G S S S S g , + . . . . + , a g g g u 1 + . .               ",
"      S S S D K L L               @ @ e U ;.s.y.s.s.s.s.s.s.s.s.<. .P S C C C 0 , + X X X X : 0 j S S S j 0 : X X               ",
"      S S S W +.1.#.}           y v m ^ @.u.s.s.s.s.s.s.s.s.s.s.<. .G C j 0 0 5 3 1 : : : : 5 0 C S S S C a 5 , * %             ",
"      S S L +.f.D.f.@.K g , O & v ) r.0.i.y.s.s.s.s.s.s.s.s.s.s.t. .P Z i 5 * : 3 0 0 0 0 0 g C C C S S C C 0 0 3 : X .         ",
"      S S R 7.F..XA.1.G g 1 O @ m r..X^.H.l.s.s.s.s.s.s.s.y.s.s.<.%.P Z 0 : X + 3 g S C S C S S S S S S S S S S 0 , X . .       ",
"      u u k ] h.^.S.i.#.! M b b 3.B.oX^.H.l.s.s.s.s.t.<.,.,.&.,...L C 0 5 , + , 0 g S S S S S S S S S C S S S S g 5 : + +       ",
"      : : e I 7.S.C.C.n.0.q.4.4.V.T..X].H.l.s.y.y.y.<.X.[ { { [ L l 0 , , 1 0 0 g C S S S C S S S C S S S S S S C 0 0 5 , + . . ",
"      X X * x O.l.Z.L.(.]./././.[..XOX^.K.z.s.s.y.y.&.[ F F F F C 0 : X : 5 g j C C C S S S C C C S S C C S C S C C j 0 1 + . . ",
"      . . % e R t.c.Q. XOXOXoXXX.X X{.L.c.y.;.*.*.o.E D g g g g 0 1 O . + 1 g g C C S S S S C S S C j j 0 C C 0 j j C g 3 + . . ",
"      . . O 8 A | i.F. XOXOXOXXX].!.L.m.t.%.} R A x i u 3 3 3 3 , + X . O : , 0 0 C S S C S S S S C 0 0 3 3 3 3 5 g C g 3 + . . ",
"      . . O 3 k P 1.A.}.OXOXXX.X^.J.c.t.%.W A d 4 ; * + + + + + O X X . X X $ : 0 g S S S S C S C g 5 : + + + + , 0 j j 3 % . . ",
"        . X , 0 Z O.b.(..X.X X{.J.c.y.&.[ S i , O . . . . . . . . . . . . . . + 3 i j C C j j C C 0 3 + . . . . % 3 g g , + . . ",
"        . X * 3 0 U 7.F.!.!.!.J.c.y.%.R A u 3 * O . . . . . . . . . . . . . . X + 3 5 0 5 5 0 5 5 3 : + . . . . % : 3 3 : X . . ",
"            + * * x ] g.H.M.Z.v.u.%.[ S p > * O . . . .           . . . . . . . + + + : + : : * : + +           O % * % O X . . ",
"              . X 9 K t.s.s.s.y.%.W S 0 , O . . . . .               . . . . . . . X . X . . . . X X X             X . . . . . . ",
"              . . 2 n | =.=.=.X.E A a 4 : X . . . .                 . . . . . . . . . . . . . . . .                 . . . . . . ",
"              . . < h E [ | { [ c u > : &                                                                                       ",
"              . . * 0 A F G F S i , X X                                                                                         ",
"              . X * 3 g j g j 0 5 + . .                                                                                         ",
"                . % : 3 3 3 3 3 : + .                                                                                           ",
"                    + + + % + % +                                                                                               ",
"                    . . . . . . .                                                                                               ",
"                    . . . . . . .                                                                                               "
};
