/* XPM */
static char *cc58ff45cb8a4e08ba88099187ab7023xLVRqGF7eYbg8ZNS[] = {
/* columns rows colors chars-per-pixel */
"64 64 12 1 ",
"  c None",
". c #4D4426",
"X c #574F2B",
"o c #4D4233",
"O c #6E6135",
"+ c #605340",
"@ c #6A6B5D",
"# c #917D3E",
"$ c #89744F",
"% c #A48D43",
"& c #949781",
"* c #A9AC9A",
/* pixels */
"                $$$$$$$$$$$$$$$$$$$$$$$$$$$$++++                ",
"             $$$$$$$$$$$$$$$$$$$$$$$$$$$$$$$$$$$+++             ",
"          $$$$$$$$$$$$$$$$$$$$$$$$$$$$$$$$$$$$$$$$++++          ",
"        $$$$$$$$$$$$$$$$$$$$$$$$$$$++$$++$$$$$$$$$$$$$++        ",
"      $$$$$$$$$$$$++++$++++++$$$$$$$$$$$$+++$$$$$$$$$$$+++      ",
"     $$$$$$$$$++++$$$$$$$$$$$$$$$$$$$$$$$$$++++$$$++$$$$+++     ",
"    $$$$$$$++++$$$$$$$$$$$$$$$$$$$$$$$$++$$$$++++$$$$++$$$++    ",
"   $$$$$$++$$$$$$$$$$$$$$++++++++++++++$$$$$$$++o++$$$$+++$$+   ",
"  $$$$$$+$$$$$$$$++++++++$$$$$$++++++++++++++$$$+oo++$$$$+++$+  ",
" $$$$$$$$$$$$$++++++++++++++++++++++++++++++++++$$+o+++$$$$++++ ",
"$$$$$$$$$$$++++++++oooo+++++++++++++++++++ooo+++++$oo+o++$$$+o++",
"$$$$$$$$+++++++oo++++++++++++++++++++++++++++ooo++++oo+oo++$$+o+",
"$$$$$$+++++++oo+++++++++oooooooooooooooo++++++++oo+++oo++oo+$$oo",
"$$$$+++++++oo++++++oooooo...............ooooo+++++oo+$ooooo+$++o",
"$$$++++++oo+++++ooo...................OX.....ooo++++o+$++++$+++o",
"$$++++++o++++ooo.............OXXXXO..OXXXXXXXX..ooo++o++$$$+++oo",
"$+++++oo+++oo.......OOXXO...OXXXXXXO.OXXXXXXXO.....oo+o++++++ooo",
"+++++oo++oo..OO....OXXXXXO..#XXXXXO#.O#XXXXX#O..OXX..ooo+++ooooo",
"o+++oo++o..XXXXO..#XXXXXXXO.#XXXXOO#.OO#####OO.OXXXXX..oooooooo$",
"$ooooooo..XXXXXX#.#XXXXXOO#.O#XOOO#OXOO####OOOX#XXXXXX..+$$$$$$$",
"$$$$$$$+.OXXXXOO#.O#XOOOO#O.OO%%%#OOXOO####OOOX#XXXXXOX.++$+$$$+",
"+$$+$$+oXO#XOOO#OXOO%%%%#OOXOO###OOOXOO####OOOX#XXXXOO#Xo++o++++",
"+++o+++oXOO#%%%OOXOO####O#OXOO###O#OXOO####OOOXO#XOOO#OXo++o++++",
"+++o+++oXOO####OOXOO####O#OXOO###O#OXOO####OOOXOO%%%#OOXo++o++++",
"+++o+++oXOO####OOXOO####O#OXOO###O#OXOO####OOOXOO###OOOXo++o++++",
"+++o+++oXOO####OOXOO####O#OXOO###O#OXOO####OOOXOO###OOOXo+++++++",
"+++o+++oXOO####OOXOO####OOOXOO###OOOXOO####OOOXOO###OOOXo+++++++",
"o++o+++oXOO####OOXOO####O#OXOO###O#OXOO####OOOXOO###OOOXo++o++++",
"o++o+++oXOO####OOXOO####O#OXOO###OOOXOO####OOOXOO###OOOXo++o++++",
"o++o+++oXOO####OOXOO####O#OXOO###O#OXOO####OOOXOO###OOOXo++o++++",
"o++o+++oXOO####OOXOO####O#OXOO###O#OXOO####OOOXOO###OOOXo++o++++",
"o++o++++oXO####OOXOO####O#OXOO###O#OXXO####OOXXOO###OOOXo++o++++",
"o++o++$+oXO####OOXOO####O#OXOO###O#OX#X####OX#XOO###OOOXo++o+++o",
"o++o+$++oXO####OOXOO####O#OXOO###O#OXO#OOOOX#OXOO###OOOXo++o+++o",
"o+++++++oXO####OOXOO####O#OXOO###O#OXOO%%%%#OOXOO###OOOXo++o+++o",
"o++o++++oXO####OOXOO####O#OXOO###O#OXOO####OOOXOO###OOOo+o+o+++o",
"o++o++++oXO####OOXOO####O#OXOO###O#OXOO####OOOXOO###OOOo+$ooo++o",
" ++o++++oXO####OOXOO####O#OXOO###O#OXOO####OOOXOO###OOOo++$$+++o",
" ++o++++oXO####OOXOO####O#OXOO###O#OXOO####OOOXOO###OOOo+++++++o",
" ++o++++oXO####OOXOO####O#OXOO###O#OXOO####OOOXOO###OOOo+++++++o",
" ++o++++oXO####OOXOO####O#OXOO###O#OXOO####OOOXOO###OOOo+++++++o",
" +++++++oXO####OOXOO####O#OXOO###O#OXOO####OOOXOO###OOOo++o++++o",
" +++++++oXO####OOXOO####O#OXOO###O#OXOO####OOOXOO###OOOo++o++++ ",
" +++++++oXO####OOXOO####O#OXOO###O#OXOO####O***&@###OOOo++o++++ ",
" +++++++oX##%%%%%%%%%%%%%%%%%%%%%%%%%%%%%%%**&&&&%%%##Oo+o+++++ ",
" +++++++oX#################################*&@@@@######o+o+++++ ",
" o++++++oXOOOOOOOOOOOOOOOOOOOOOOOOOOOOOOOOO&@@&OOOOOOOXo+o+++o+ ",
" o++++++oXXXXXXXXXXXXXXXXXXXXXXXXXXXXXXXXXX@*&*&XXXXXXOo+++++o+ ",
" o++++++oXXOOOOXX.XXOOOOXOX.XXOOOXOX.XXOOOO*&@&*&OOOXOOo+++++o+ ",
" o++++++oXO####OX.XO####O#X.XO###O#X.XO####*@.@&*###OOOo+o+++o+ ",
" o++++++ooOO###OOXOO####O#OXOO###O#OXOO####*@X.@*&##OOOo+o+++o+ ",
" o+++++oooOO###OOXOO####O#OXOO###O#OXOO####&@X.X&&##OOOo+++++o+ ",
" o++++oo+oOO###OOXOO####O#OXOO###O#OXOO####@&OXO*&##OOOoo++++o+ ",
" o+++o+++oOO###OOXOO####O#OXOO###O#OXOO####@&@X*&@##OOOoo++++o+ ",
" o++++$++oXO###OOXOO####O#OXOO###O#OXOO####X@**&@X##OOOoo++++o+ ",
" o+++$+++oXO###OOXOO####O#OXOO###O#OXOO####OX@@@XO##OOOoo++++o+ ",
"  +++++o+oXO###OOXOO####O#OXOO###O#OXOO####OOXXXO###OOXoo++++o+ ",
"  +++++o+oXO###OOXOO####O#OXOO###O#OXOO####OOOXOO###OOXoo++++o+ ",
"  +++++o+oXO###OOXXO####O#XXOO###O#OXOO####OOOXOO###OOXoo++++o+ ",
"  +++++o+oXO###OOX#X####OX#XOO###O#OXOO####OOOXOO###OOXo+++++o+ ",
"  +++++o+oXO###OOXO#OOOOX%OXOO###O#OXOO####OOOXOO###OOXo+++++++ ",
"  +++++o+oXO###OOXOO%%%%##OXOO###O#OXOO####OOOXOO###OOXo++++++o ",
"  +++++o+oXO###OOXOO####O#OXOO###O#OXOO####OOOXOO###OOXo++++++o ",
"  +++++o+oXO###OOXOO####O#OXOO###O#OXOO####OOOXOO###OOXo++++++o "
};
