/* XPM */
static char *cf8ec9c8393043f684c127b676cd019fsbuh78VsaPxMrW9m[] = {
/* columns rows colors chars-per-pixel */
"64 64 234 2 ",
"   c None",
".  c #38051D",
"X  c #170625",
"o  c #190726",
"O  c #190827",
"+  c #1A0A2A",
"@  c #240926",
"#  c #2B0A27",
"$  c #240C29",
"%  c #2C0C28",
"&  c #240622",
"*  c #310B27",
"=  c #340D28",
"-  c #3B0E29",
";  c #3C0B24",
":  c #34122B",
">  c #3C122B",
",  c #3A182F",
"<  c #35162F",
"1  c #3D2238",
"2  c #58000E",
"3  c #56000F",
"4  c #490417",
"5  c #590819",
"6  c #640412",
"7  c #6C0413",
"8  c #670B1B",
"9  c #750515",
"0  c #740D1C",
"q  c #7A0615",
"w  c #70131D",
"e  c #440D25",
"r  c #420F29",
"t  c #4D0C21",
"y  c #570D22",
"u  c #44132B",
"i  c #4C122A",
"p  c #4A172B",
"a  c #53142B",
"s  c #5B152C",
"d  c #551A2D",
"f  c #5C1B2E",
"g  c #591127",
"h  c #461D32",
"j  c #511E30",
"k  c #64162C",
"l  c #6A172C",
"z  c #641A2E",
"x  c #6B1A2E",
"c  c #691325",
"v  c #731A2E",
"b  c #7C1C2E",
"n  c #771525",
"m  c #681E30",
"M  c #7C1E30",
"N  c #761F30",
"B  c #4A2538",
"V  c #592938",
"C  c #642332",
"Z  c #6C2432",
"A  c #672C3A",
"S  c #742432",
"D  c #7B2231",
"F  c #732A36",
"G  c #7C2A35",
"H  c #742D39",
"J  c #6C313E",
"K  c #79353D",
"L  c #7D272C",
"P  c #693743",
"I  c #793B44",
"U  c #5C3040",
"Y  c #7A4347",
"T  c #744A52",
"R  c #850515",
"E  c #8A0818",
"W  c #970919",
"Q  c #80171F",
"!  c #A20A1B",
"~  c #AC0A1B",
"^  c #A10719",
"/  c #B40B1C",
"(  c #BB0B1C",
")  c #A3111F",
"_  c #841D2F",
"`  c #8C1E2F",
"'  c #8A1722",
"]  c #971926",
"[  c #821F30",
"{  c #8C1F30",
"}  c #911F30",
"|  c #B60F21",
" . c #A71925",
".. c #B81726",
"X. c #8D242D",
"o. c #842332",
"O. c #8B2332",
"+. c #842A34",
"@. c #8C2B35",
"#. c #832A38",
"$. c #942332",
"%. c #9B2633",
"&. c #942A34",
"*. c #9C2A35",
"=. c #952E3A",
"-. c #86353B",
";. c #9B3136",
":. c #9C343B",
">. c #96363B",
",. c #99262B",
"<. c #A7262D",
"1. c #B3262E",
"2. c #A32C36",
"3. c #A92E37",
"4. c #A72C36",
"5. c #A43237",
"6. c #AB3137",
"7. c #A4343A",
"8. c #AC3339",
"9. c #A43A3C",
"0. c #AC3A3B",
"q. c #B23539",
"w. c #B43A3B",
"e. c #BB3C3C",
"r. c #B63637",
"t. c #B02D35",
"y. c #C30C1E",
"u. c #CB0E21",
"i. c #C91628",
"p. c #D81427",
"a. c #E4182B",
"s. c #E51F32",
"d. c #D72636",
"f. c #C13F3D",
"g. c #CA2634",
"h. c #EB293A",
"j. c #BD413E",
"k. c #B3403D",
"l. c #C2423E",
"z. c #C9413E",
"x. c #873C42",
"c. c #973C42",
"v. c #AB3C41",
"b. c #A33F43",
"n. c #B43D40",
"m. c #DE3542",
"M. c #E93947",
"N. c #F23343",
"B. c #8C4144",
"V. c #854445",
"C. c #994646",
"Z. c #99524A",
"A. c #8C4D52",
"S. c #9A5557",
"D. c #904B50",
"F. c #AC4242",
"G. c #AD4C4D",
"H. c #A74847",
"J. c #B34343",
"K. c #BC4342",
"L. c #B74A49",
"P. c #A9554B",
"I. c #BA5C4E",
"U. c #B7554B",
"Y. c #AA5855",
"T. c #B85754",
"R. c #A54E51",
"E. c #AA635A",
"W. c #B76654",
"Q. c #BB755D",
"!. c #9E6766",
"~. c #B96B65",
"^. c #AA726D",
"/. c #C44542",
"(. c #C84741",
"). c #C54A43",
"_. c #CB4C44",
"`. c #C64B49",
"'. c #D14E45",
"]. c #DB4D43",
"[. c #CD5146",
"{. c #CD544A",
"}. c #C45B4D",
"|. c #CD5B4C",
" X c #C3554A",
".X c #D25146",
"XX c #D45549",
"oX c #D45B4C",
"OX c #DA5C4C",
"+X c #DA554A",
"@X c #C45855",
"#X c #D65C54",
"$X c #E4574A",
"%X c #F74855",
"&X c #DA614F",
"*X c #D6614F",
"=X c #C36452",
"-X c #CB6855",
";X c #D56551",
":X c #DB6452",
">X c #D26A55",
",X c #DE6B55",
"<X c #D8685C",
"1X c #C7735A",
"2X c #D47259",
"3X c #DE735A",
"4X c #DE7A5C",
"5X c #D9755A",
"6X c #CC614F",
"7X c #E96859",
"8X c #E07B5D",
"9X c #E0765C",
"0X c #C26B64",
"qX c #C77866",
"wX c #D97B69",
"eX c #CD746B",
"rX c #E37D65",
"tX c #CD8666",
"yX c #D68765",
"uX c #D9956D",
"iX c #C98679",
"pX c #DE9D71",
"aX c #E18362",
"sX c #E28A66",
"dX c #E3966C",
"fX c #E59D71",
"gX c #F08373",
"hX c #E6A877",
"jX c #E9B37E",
"kX c #DAA376",
"lX c #EDBA84",
"zX c #F1BD86",
"xX c #F2C48B",
"cX c #F6D092",
/* pixels */
"                                                                                                                                ",
"                                                                                                                                ",
"                                                                                                                                ",
"                                                                                                                                ",
"          X X X X X X O X X                           X X X X X X X X X X X X X X                           X X X X X X X X X X ",
"        X X X O X X X O X X X                       X X X X X X X X X X X X X X X                         X X X X X X X X X X X ",
"        X X @ % > u u > > > = =                     = - > > > > , > p p u u u > > :                     = = - > > u p : % O X X ",
"        X X % p C G S Z z f a > #                 = p f k z C C Z F F H H F Z Z C p :                 % u d k C Z G D V u # X X ",
"        X X > C -.w.7.;.&.o.m p @ O           X X > f D @.@.&.=.;.9.k.k.k.:.:.;.G f > X X           O % a x { %.;.0.0.+.V % X X ",
"        X X u G k.$X].f.r.2.S a % O O         X o u z &.6.q.e.l.l.z.[.6XXX'._.l.;.C > o O         O O = f [ v.t.z.z.].9.S > X X ",
"        X X p K k.$X].f.q.%.o.m d u u :     * = - s D *.r.w.l.l._.XX*X:X#XoX[.z.0.-.C p u >     > u p f N #.<.n._.+X$Xv.F > X X ",
"        X X h -.U.7X+X/.8.%.&.o.L Z f u @ % u i s v O.5.e.l.z._.[.oX,X3X,X:XoX'.j.:.+.S C p % % u C S D o.$.%.v.(.OX7XF.H , X X ",
"        X X h I @XrX@Xm.7.} %.*.5.@.Z p @ # e k b O.2.8.e.l._..XOX:X3XrXwX,X:X+Xl.j.k.;.G d % % j D :.;.%.$.$.v.`.:X7XP.J , X X ",
"        X X h x.T.<X@XL.v.%.7.8.e.7.G d # ; s v $.%.6.w.l.(.'.+XOX,XrXaX9X9X:X+XXX[.l.e.@.C - = f +.w.w.v.v.%.v.L.#X<XR.K , X X ",
"          X h J x.G.R.G.G.L.n.n.w.*.o.k u a x o.%.2.6.r.e.j.(.'.XX:X,X3X3X:X#X.Xz.l.l.r.&.S a a x O.5.q.n.n.L.G.G.G.R.x.A , X X ",
"            , V A P x.R.@X#X@XJ.5.%.o.b k x _ } 2.4.6.q.w.0.m.(._.oX#X,X:XOX.X(.l.l.j.0.&.o.x l M O.%.0.n.@X<XT.R.x.J V B       ",
"              : : : P S.eXrX0XL.v.} ` _ _ } } 2.4.3.8.8.q.r.f.f.(._.XXOXOXXX(.z.f.n.q.8.2.$.{ _ o.` $.7.L.<XgX0XD.U : %         ",
"                X + V A.0XwX@Xv.$.` } } } } %.2.4.4.3.3.t.q.e.n.l.(.'.XX'._.l.f.q.q.3.2.*.%.$.} } X.{ *.L.0XwX~.I B + O         ",
"                  + B Y A.S.c.c.{ { } } %.%.%.%.&.*.2.4.q.q.q.q.e./.(._._.z.f.w.q.4.=.*.%.%.%.%.$.{ { @.x.C.S.A.P 1 +           ",
"                    1 V U P P N M [ } c.%.c.$.} O.&.*.4.8.t.q.q.w.e.z.(.l.j.w.q.4.2.$.O.$.%.*.*.%.O.[ N F J P V U               ",
"                      $ $ % u s v [ } c.t.v.} ` M O.&.2.6.6.8.8.q.r.e.f.m.0.0.8.2.&.[ [ O.*.4.4.%.O.M x d > # $ $               ",
"                      O X @ - f M { } %.2.} _ v z v O.&.4.6.6.8.q.r.e.f.e.r.5.2.&.[ v l N [ *.*.*.O.O.N a : o X                 ",
"                      X X + p m @.=.%.&.c.{ v s i s v o.%.*.6.r.e.w.f.f.n.8.2.&.[ x f p k N O.&.&.*.=.o.z > X X                 ",
"                      o o @ p S *.8.2.} _ N s u = i f v O.*.5.r.e.f.e.f.r.7.&.o.v s r * p k M O.&.2.8.=.Z u o X                 ",
"                      X X @ d +.0.e.5.&.M l i * O * i k L &.5.w.f.l.j.l.w.;.@.b z i # o ; a x [ ,.7.e.5.S u @ X                 ",
"                      * = e m @.q.n.0.5.=.D z i * j C x.C.k.U.}.6X;X>X<X=XT.P.C.K V p : d m #.&.7.0.j.0.@.m u - <               ",
"                  X = r a k D *.w.e.n.n.v.c.G z p C x.Z.W.W.1X1XyXyXuXdXuXtX1XQ.Z.I C a x #.c.v.w.k.j.w.;.+.m f i = O           ",
"                X X - a l b &.5.w./.K./.L.F.>.D x -.R.W.tXyXuXpXfXhXlXxXxXkXkXuXQ.Z.K x +.>.J.`.K./.l.e.8.=.@.D f = X X         ",
"                X o - g N } 2.6.e.l._.`.{.`.v.=.o.C.I.tXdXfXhXhXjXxXcXcXcXxXlXjXtXW.C.+.c.n.`.`.[././.f.0.0.8.+.z = X X         ",
"                X o ; s b } %.4.q.e.n.n.L.n.v.b.:.P.W.yXsXdXfXfXhXjXzXzXlXlXhXkXyXQ.E.Z.H.G.L.K.K.K.f.f.m.n.e.=.C - X X         ",
"                X o ; s b } %.4.q.q.q.8.v.v.n.U.I.=X>X5XaXaXsXsXdXfXhXhXhXfXfXuXuXtXqXQ.T.U.v.0.w.e.e.f.m.L./.c.Z , O X         ",
"                X o - s b } %.2.3.8.4.2.%.7.L.@X2X2X2X3X9X9XaXaXsXsXsXsXsXsXsXsXyXuXkXuX1XP.9.*.4.q.e./.`.`.{.c.H h O O         ",
"                X X - s _ } %.2.2.4.2.%.&.k.j.;XaX2X>X6X}.>X2X4X8X8XaX8X4X5X1X1XtXtXpXpXtXW.k.;.;.k.0.j./.[.{.b.H u X X         ",
"                X O - k _ %.%.%.2.2.4.7.0.k.}.>X3X1XI.Z.C.P.W.2X9X9X9X8X>XW.P.Z.E.Q.tXdXyX1XW.k.k.k.6.r.n./.`.b.J u X X         ",
"                X O r z { 2.%.%.,.2.6.e.j.[.6X&X3XI.Z.K A V.P.>X9X9X,X,X-XZ.Y V Y P.1XaX5X2X1X=XI.k.;.6.q.j.).:.Z u O X         ",
"                X o u m $.4.2.%.} %.8.j..XoX&X,X5Xk.K h : A C.=X7X9X,X9XI.B.V @ V B.I.5XaXaXyXyXW.J.&.,.6.w.l.;.Z > O X         ",
"              # * * a N &.3.2.%.} %.6.l.oX&X&X:X5XP.V.j > A c.}.,X,X,X,XI.B.C . V x.U.,X9XaXaXaX=Xk.%.$.4.q.e.;.D p # * #       ",
"            % - r a x [ *.3.2.%.$.%.7.e.z.*XOX&X,Xj.B.Z d G k.}.,X,X3X3X=XC.K p F C.}.3X3X5X4X2XI.k.$.,.2.6.w.*.o.l i r - @     ",
"        X X * e s v [ &.2.3.2.%.} $.4.w.l.z.|.&X,XI.k.L v ;.k.|.&X,X,X4X1Xk.-.w +.k.6X,X,X,X,X*XU.0.$.$.%.4.q.2.O.M l a r # X X ",
"        X X * a v } $.*.4.4.2.%.$.$.4.r.j.z.XX&X,X}.k.;.} 7.j.XX&X&X5XaX-XU.k.X.5.j.*X,X&X&X&XXXj.6.$.$.%.4.3.4.2.$.{ l i # X X ",
"      X X X * a v ` } %.%.2.*.} } ,.2.3.r.z._.|.&X{.j.k.7.k.l.XXz.&X,X3X>X}.k.k.k.U.*X:X&XOXXX[.e.4.$.} $.*.2.*.%.%.,.v a % o X ",
"O O X X X X * a v { } } $.$.} { } } 2.4.q.e./._.[. XU.).L.K.l.[.OXOX&X,X;X6X}.j.I.6X*X&X&X*Xz.z.w.4.$.{ } { &.$.*.4.2.D d % X X ",
"X X X X X X * a v { { { [ [ { { } } 2.4.8.q.j.l._.[.[.|.|.[.[.l.z.OXz.,X&X;X;X>X>X&X&XOXoXz.z.j.q.2.} ` { [ o.&.2.6.0.+.f = X X ",
"X X X X X X * a n _ { { [ M M { _ { %.*.4.8.w.e.j.z.|.*X,XoX[.l.l.z.z.OX&X:X5XaX3X:X&XXXXXz.l.w.6.%.{ _ { [ b O.;.q.e.@.f = X X ",
"X X X X X X * a l } } { { [ [ N l v [ O.*.4.7.q.e.l.[.|.*X6Xz.l.l.z.l.z.oX*X>X2X;X*X;Xz.z.l.r.5.&.D x x v [ O.&.*.5.6.+.f % X X ",
"X X X X X X * a v } } } &.&.M k a a z N O.&.4.6.r.j.j.[.z.z.l.l.l.l.j.j.l.l.z.6X6Xz.z.l.j.k.;.@.D k i s x o.&.%.2.2.%.b d # X X ",
"X X X X X X * g v { } %.2.%.M f = - a k M O.%.2.r.r.l.l.l.l.l.l.l.j.r.r.k.j.j.l.z.l.l.l.k.;.@.N k i * e k D 2.2.*.,.X.v a # X X ",
"X X X X X X * i v } $.*.4.*.N d * # r a l D @.:.0.k.r.k.k.j.e.e.j.r.r.1.r.r.r.r.j.j.l.j.k.-.L k a - @ > f o.4.2.%.$._ x u # X X ",
"X X X X X X * i l { { %.%.%.[ k i r r i a m x.b.T.G.v.2.,.<.<.<.1.1.1.1.<.<.<.,.5.J. XT.H.I z a i r - a x [ 2.%.$.{ _ k r # X X ",
"X X X X X X # i l [ [ { $.$.[ x s a i r - V I S.0XY.c.O.Q ' ]  . ... ... .) ' n @.H.T.eXD.I j - u i a k v [ %.} { { b k r # X X ",
"X X X X X X # p k N _ { { { [ [ v k i - @ h I !.iXE.c.n 6 q E W ) ~ / ( ~ W q 6 L Z.~.^.S.P , # r a x v b { } { [ _ v s r # X X ",
"X X X X X X # u a l v b _ { { [ M v g e & h P S.qXY.>.n 7 R E ^ ) / ..i...! R 7 o.>.~.~.A.P > * e s v _ _ _ ` _ b x k a - $ X X ",
"X X X X X O $ - r a s x b _ _ _ [ v c t . i H c.G.v.%.' E W ~ ( i.i.d.d.g.1.] R ] ;.k.G.x.Z t . y k b _ _ _ [ b l s i r = $ + + ",
"X X X X O   @ # * * i s v b _ _ { b c 5 4 y n { 4.<. .! ^ / y.u.p.d.N.].m.g.| ! )  .<.*.o.c 5 4 5 n _ _ _ _ M l f r * # # +     ",
"X X X X       + + + = a l b [ ` ` ' n 8 2 6 9 E W ^ ~ / y.y.p.a.h.h.%X%X%Xd.i.( / ~ ! W R 9 6 2 8 n ` { _ _ b k i # O O +       ",
"X X X X         + X * u a k k l v l 0 8 8 7 9 R E W ^ / ( y.u.p.a.h.N.%X%Xd.i./ ~ W W R R 9 7 8 w c n x l l k a - # O +         ",
"X X X O           O # = r u i i a a c c 0 0 0 q q R W ^ / ( y.u.a.s.h.N.h.g.u.~ ^ E R q 9 9 0 0 c g a a i i p - * % +           ",
"X X X X             $ % % # * * * - t c _ n 0 7 6 q R W ^ ~ ( y.u.p.a.h.h.i.| W E R 9 7 9 0 n n c i ; # * # # # $ $             ",
"X X O O               O O X X X X # p k _ _ 0 7 2 7 q E W ~ ~ ( y.y.p.a.p.i.| W E 9 2 3 8 c _ b g r @ X X X X X O               ",
"X X O                 + X X O X O @ - a c g y 4 4 5 b $.4.<. .W ! ~ ( y.....1.7.&.v 5 4 5 g c k i - @ O X X X +                 ",
"O +                       + + O + $ : - r e e . . g H C.U.9.,.' R R E W ] 4.v.T.c.Z i . ; e r r - % $ X + + +                   ",
"                                + $ $ $ # # @ O & B Y E.~.P.@.0 7 7 9 9 _ >.Y.eXS.P h & & # # @ # $ + +                         ",
"                                  + + O X X X X + B T ^.iXS.-.8 2 2 2 2 v x.E.lX!.T 1 X X X X + + +                             ",
"                                  + + X X X X X + U T ^.iXE.-.w 2 2 2 2 l c.E.^.!.T 1 X X X X + O +                             "
};
