/* XPM */
static char *_4700d8386d64ca2a2d63b2943c88ab4R2EL49ubbxfJ2kCy[] = {
/* columns rows colors chars-per-pixel */
"64 64 158 2 ",
"   c #62493C",
".  c #5E4639",
"X  c #60483A",
"o  c #654B3E",
"O  c #61483B",
"+  c #5B4438",
"@  c #5A4438",
"#  c #584337",
"$  c #61493C",
"%  c #5F473A",
"&  c #544035",
"*  c #5C4639",
"=  c #564136",
"-  c #5D4639",
";  c #554135",
":  c #634A3C",
">  c #664C3E",
",  c #5C4538",
"<  c #674D3F",
"1  c #514838",
"2  c #524537",
"3  c #5D4539",
"4  c #5A4337",
"5  c #5C4539",
"6  c #574236",
"7  c #594438",
"8  c #534336",
"9  c #544C3A",
"0  c #5B5340",
"q  c #5D5541",
"w  c #464534",
"e  c #4A4635",
"r  c #554738",
"t  c #534939",
"y  c #5B523E",
"u  c #5C5440",
"i  c #644B3D",
"p  c #534135",
"a  c #524436",
"s  c #564839",
"d  c #55543F",
"f  c #4E4C39",
"g  c #424232",
"h  c #434333",
"j  c #4A4937",
"k  c #54523D",
"l  c #514E3A",
"z  c #454434",
"x  c #51503C",
"c  c #4B4937",
"v  c #484836",
"b  c #504636",
"n  c #654C3E",
"m  c #60483B",
"M  c #544F3C",
"N  c #484635",
"B  c #494836",
"V  c #4B4B38",
"C  c #484736",
"Z  c #3B3B2D",
"A  c #404030",
"S  c #585640",
"D  c #4D4A38",
"F  c #57503D",
"G  c #584D3C",
"H  c #5E463A",
"J  c #564C3B",
"K  c #54523E",
"L  c #464433",
"P  c #444332",
"I  c #474534",
"U  c #3F3F2F",
"Y  c #4A4836",
"T  c #4E4E3A",
"R  c #58533F",
"E  c #574A3A",
"W  c #554337",
"Q  c #544336",
"!  c #5B5A43",
"~  c #38382A",
"^  c #3A3A2C",
"/  c #3C3C2E",
"(  c #424131",
")  c #584E3D",
"_  c #574739",
"`  c #3E3E2E",
"'  c #454534",
"]  c #4F4E3A",
"[  c #634A3D",
"{  c #56543E",
"}  c #52503C",
"|  c #414131",
" . c #39392B",
".. c #61493B",
"X. c #4C4A37",
"o. c #444333",
"O. c #403F2F",
"+. c #3B3A2C",
"@. c #3D3C2D",
"#. c #434232",
"$. c #5A5641",
"%. c #54533E",
"&. c #544638",
"*. c #504E3B",
"=. c #56513D",
"-. c #504938",
";. c #5C4C3C",
":. c #59523E",
">. c #4E4B38",
",. c #595741",
"<. c #514A39",
"1. c #5A4B3B",
"2. c #5E493B",
"3. c #494535",
"4. c #454332",
"5. c #4E4D3A",
"6. c #514F3B",
"7. c #4D4737",
"8. c #4F4938",
"9. c #4B4435",
"0. c #5D503E",
"q. c #4A4837",
"w. c #4C4435",
"e. c #5D5340",
"r. c #5C473A",
"t. c #5F513F",
"y. c #554B3A",
"u. c #554A3A",
"i. c #4F4C39",
"p. c #624D3E",
"a. c #5A493B",
"s. c #524B39",
"d. c #574638",
"f. c #5C4A3B",
"g. c #4E4636",
"h. c #4F4A38",
"j. c #574C3B",
"k. c #444232",
"l. c #554C3B",
"z. c #5E5440",
"x. c #594739",
"c. c #5F473B",
"v. c #5C4F3D",
"b. c #464233",
"n. c #574839",
"m. c #614E3E",
"M. c #5B523F",
"N. c #544A39",
"B. c #534B3A",
"V. c #484133",
"C. c #634F3F",
"Z. c #604F3F",
"A. c #4A4535",
"S. c #5B4A3B",
"D. c #5B493B",
"F. c #5F493B",
"G. c #5A4639",
"H. c #5E4C3C",
/* pixels */
"  . X o O O O o O + @ # $ % # & # & & & & & & & & +   * * = - $ = # ; & & & & + & & & & * % - $ $ $ $ % O : > X . , # . . % O % ",
".   > o O O : < O = # & & & & & # & & 1 1 2 & & = 3 4 & & & & & & + , & & & = # & & & & & = # & & & & # % < > 5 6 4 3 . . O < o ",
"5 > < X . 4 O : 7 ; & & & 8 9 0 q 0 9 w w e 1 1 r . 6 & & & & & 8 t y 0 0 0 u u 1 1 1 & & , 3 = & & & & = @ @ = = 3 . . . % O O ",
"X 4 6 i   $ * & p a s d f g g g h w j k l z g g f d d d d d x c g g g g g g g z g g g v d x c b 8 & & & + & & & - n : > i i i i ",
"7 , . m 7 & & 2 M w j g N d d f B w j V C N c c Z A g z c d d f g g N f d d d S x z N d v g g z D 9 F G = & & & & # % . 6 6 6 6 ",
"% # H = & J K v w B c c z z N g A L c A Z P V V I I I P U A g g Y I w w w U U U U U U A T x N z V V V z N d d d R E W % + & & & ",
"i   # 4 Q ! T g c z g w w A g g g g g g z f d d L Z Z ~ ~ ^ U U / ( I I I ~ ~ ~ ~ ~ ~ ^ U g g N d d d c C g g g f S ) & # & & = ",
". X # _ M v g g N g g w w A z c c c c Z ` Z Z Z Z Z Z ^ ^ ~ ~ ~ ~ ~ ~ ~ ~ ~ ~ / U U U ~ ~ Z Z Z c c A ' C A ` g g z ] G # $ $ [ ",
"7 6 ; { } A | Y g g g | U g A Z Z  .~ ` A g g Z ~ ~ ~ ~ / ^ U U g g A ^ U g g g U ~ / `  .~ ^ U L Z L `  .U | h A A g 1 & ..X X ",
"> X 6 X.j A o.I g g g ^ / g A A A  .~ Z  .Z Z  .~ ~ ~ ^ ^ / ^ ^ c A  .~ ~ A ` g ^ / U A A ~ ~ ~ A z g N N P U | N g g F & @ i i ",
"o + ; x g g h h g g ` ^ | A ^ ^ ^ ~ / U U U U U U ^ ~  . ./ `  .O.+.~ ~ ~ / A g U | g g g / ~ ~ +.@.Z @.o.#.I | N z g $.8 = H   ",
"# & 0 g g ` g g | ^ ~ g Z Z ^ ~ / ~ / / ~ U U U U U U ~ ~  .^ ~ ~ U g | U ~ ~ ~ ~ ~ ~ ~ ( ~ ~ ~ ~ @.+. . .A z #.A A | %.&.& = + ",
"& G *.g g A ` g / ^ / Z  .Z ^ ~ ^ ^ ~ ~ ~ ~ ~ ~ ~ ~ ~ ~ ~  ./ U U | g U / U U U U U ^ ~ ~ U U U U U +. .` A g z L A | V E & # $ ",
"& 0 k g g g g A ~ ~ U ~ ^ Z Z Z Z Z A g g g g A U ^ ~ L  .Z ^ ~ ~ / U A g / ~ / ~ / U g g | U U ~ ~ ~ +.+.^ ` ` B h g V E & 6 , ",
"W =.f g g g | ^ ~ ~ U ~ / U U U g g g | U U U / Z Z Z g ` g A Z Z Z Z Z A ~ ~ ~  .Z Z g g A Z Z ^ ~ ~ O.O.+.( U w w g j s ; # = ",
"E V N g g A ^ ~ ~ ~ ^ ~ ~ ~ ~ ~ Z Z Z ^ ~ ~ ~ ^ Z Z A Z Z Z Z Z Z Z Z  . .U U U A g g z c Z ` g | U U | | | w h w w g w -., + & ",
";.j N g g / / ~ ~ ~ ~ ^ ~ ~ ~ ^ ~ ~ ~ / ~ ~  . .~ ~ ~ ^ U U U U  .Z Z ~ ~ A g ` Z  .~ U U U U U U U U / ~  .^ P z #.| g f 3 # - ",
":.w g g g ^ ~ ~ ~ ~ ~ | U U / ^ ~ ~ ~ ~ ~ ~  . .~ ~ ~ ~ ~ ~ ~ ~  .Z Z @.I L g g g Z ~ ~ ~ ~ ~ ~ ~ ~ ~ ~ ~  .^ ^ z >.w g d + = % ",
"] h g A A ^ U U U U ^ Z Z Z ^ ~ ~ ~ / U U / ~ / U U U U U / ~ ~ ~ ~ ~ | w #.Z Z Z  .~ ~ ( ~ ~ ~ U U U U ^ U / ~ U X.w g d = 7 X ",
"f g g U / @.N A ^ U | g g U U U U ^ ( ~ ~ ~ ~ ~ Z Z Z / U ~ ~ / U U U A g g z z | U ^ ~ ~ U U U U ^ ~ ~ ~ +.O.O.Z c w g N & 7 i ",
"d g N | P ~  .Z ~ ~ ^ Z Z ~ ~ ~ ~ ~ ~ ~ / U U U Z Z Z ^ / U U U U ^ ~  .Z Z Z Z | U U U U U ( ( U U U I ( | w w A z B g g 2 7 X ",
",.w g g Z ( ~ ~  .Z Z Z Z Z ` A U U U / ~ ~ ^ U U U | g ` ^ ^ U g g g g ` ^ ~ ~ ~ ~ / ~ / U U U U ^ / U U U U U L g c g z 9 = 3 ",
"S N h h @.~ ~ ~ ^ U U U U U U ^ ~ ~ ~ +.O.@.~ ^ ~ ~ / U U / ~ ~ U U U U U ` ^ ~ ~ ~ ~ ~ ~ ~ ~ ~ ~ ~ @.~ ~ ~ ~ ~ ^ | c g c 0 & + ",
"d z h h @.~ ~ ~ ~ ~ ~ ~ / U U U U P I I w o./ ^ ~ ( ( U U U / ~ ^ U U U U A o.@.~ ~ ~ ^ U U U U ( @.@.~ ~ @.P U / U c g c 0 & + ",
"<.' g Y | ^ ~ ~ ~ ~ ~ ~ ~  .Z Z ` g g | U U U U U U U U U U U ^ ~ ~ ~ ~ ^ Z Z #.w h g g A U / ~ ^ U U U U U U U ^ / U z g 1 & - ",
"1.V g I U | U U U U U U U ` Z Z Z Z Z ^ ~ U U U U U U U U U U U U U U U | ` g z w h g A  .~ ~ ~ ^ U U U U U / ~ U ~ ~ N A 1 & # ",
"2.3.g ( U Z Z Z g g g g ` / ( ( / ~ ~ ~ ~ ` g g g g ` ` g g g g z z g g `  .Z Z Z Z Z ^ ~ ^ / ~  .Z Z A A g | U | ^ ~ I U 1 & & ",
"$ 1 w g Z ~ ~ ~ ~ ~ / U | g g g ^ U U / ~ ~ ~ ~ ~ ~ ~ U ^ ~ ~ / U U U U ^ U U | U U U / ~ ~ ^ U U o.@.~ ~ ~ ~ ~ ~ ~ ~ U U w 1 & ",
"$ 1 w N L / ^ U U U U ~ ^ Z Z Z ~ ~ ~ ~ / ( P U U U U / ~ ~ ~ / U U U / ~ ~ ~ ^ ~ ~ ~ ~ ~ ~ ~ ~ / @.+.~ / U U U / ~ ~ o.U w 1 & ",
"$ 9 C g c U +.+.^ U U U U ~ ~ ~ U | z z g g g A ` Z Z ` Z ~ @.@.^ ~ / U U ~  .Z Z Z Z Z ` I 4.U U U U A g g g g g A U N z 5.0 & ",
"% 0 V | Y U @.@.~ ~ ~ ~ ~ ~ ~ ^ Z A N N A U U ^ ^ U o.o.^ ~ ~ ~ / ~ ^ Z Z Z ` g g A U U P O.( @.~ ~ ~ ^ U U U U U ^ ~ c g k 0 & ",
"= 0 V | Y U ~ ~ ^ U U U U U U | Z Z Z Z  .~ ~ ~ ~ ~ @.@.~ ^ U U U U | g g g A Z Z  .~ ~ ~ ( o.U / / U U U / ^ ^ ~ ~ ~ c g 5.0 & ",
"E 6.z g c U O.+.~ ~ ~  .Z Z Z  .~ ~ ~ Z Z ~ ~ ~ / / ^ ~ ~ ~ ~ ~ ~ ~ ~ ~ ~ ~ ~ ~ ^ ^ ~ U U / ^ U U U U ~ ~ ~ ~ / / ~ I ` g w 1 & ",
"&.C ` A N +.O.+.~ ~ ~  .Z Z ` Z ~ / ^ ` g U U U U ^ ~ / ~ U U U U ^ ~ ~ ~ ~ ~ ~ ~ ~ ~ ~ ~ ~ ~ ~ ~ / ^ ~ ~ ~ ~ ~ ~ ~ I A A w 1 & ",
"7.h L U I ~ ~ ~ ^ ^ / U U U A A U /  . .Z Z Z Z Z  .~ ^ ~ Z ` g g A U U U / ~ ~ ~ ~ ~ ~ / U U U U /  .~ ~ ~ ~ ~ ~ ~ @.Y o.w 1 & ",
"f g g w w ~ ~ / U U U A ` Z Z Z Z Z A U U A g g g g ` @.+.~ Z ` Z Z  .~ ~ ^ U U U U U U U U / ~ ` g A g g z L Z Z  .~ B h C 9 # ",
"d g g w w ~ ~ / ~ ~ / ` Z Z Z Z ` ` Z ^ U  .Z Z Z A g h | U A g A Z  .~ ~ ~ ~ ~ ^ U ^ ~ / U / ~ Z Z  .Z Z Z Z Z A  .~ ( w 6.0 # ",
"x z h w w ~  .Z A A z O.+.Z Z Z Z Z Z Z  .~ Z Z ~ ~ ~ ^ ^ ~ ~ ~ ~ ~ ~ A g U U U U U U U U A | U U U U ~ ~ ~ ~ ~ ~ U g Z c k 0 & ",
"f c w w w  ./ U U U I c A g g g g A U U ^ ~ ^ ^  .Z Z Z Z Z Z Z ^ ~ ~ ^ U ~ ~ ~ ~ ~ ~ ~ ~ ^ / ~ ~ ~ ~ +.O.@.~ ~ ~ U g Z N k 0 & ",
"d c w h h  .^ ~ / ~ ^ g g A Z A g A U ~ ~ / ~ ~  .Z Z Z Z Z Z Z ^ ~ ~ ~ ~ ~ ^ ^ ~ ~ ~ ~ ~ ~ ~ ( P U U U O.@.~ ~ ~ U g L g l 9 & ",
"d c w U U ~ ^ / Z Z Z Z Z ` g g g Z ~  .Z g g g g g A g g g g g g N N #.Z Z ` g U / U U U o.A g g g g | U U U U / U g c g w 1 & ",
"d z h U U ~ ~ ^ N g ` Z Z Z Z Z Z  .~ ` Z Z Z Z Z Z  .Z Z Z ` ` Z Z ` A g A Z Z ^ ~ ~ ~ ~ @. .Z Z Z Z U ~ ~ ~ ~ ~ U g c g j F & ",
"d g g U U ^ U U N c #.U ^ ~ ~ ~ / ~ ~ ^ ~ ~ ~ ~ ~ ~ ~ ~ ~ ~ Z A U U | g ` ^ ~ ~ ~ / U U U U U U U ^ ~ | U U / ~ ~ U g c g V 0 & ",
"8.' g U U ~ ^ U U U ^ / ~ ( w w z A Z Z Z ` g g U U U / ^ Z Z A g Z ~ ~ ~ U U U U U U U | A ^ ~ ~ ~ ~ ~ / A A  .~ U g N A V 0 & ",
"E V N U U ~ ^ ^ U U U U U w w w A Z A g g g g g U ^ ~ ~ U g g g g A U U U U U ^ ^ U ^ U | g | U U ^ / U U  .Z #.^ | ` c g V 0 & ",
"E V c U I ~ ~ / Z  ./ U U ` Z Z ~ ~ ~ ~ ~ ~ ~ ~ Z A Z ~ ~ ~ @.( U | g ^ ~ ~ ~ ~ ~ ~ ~ ~ ^ Z Z  .Z Z ` U U U / ~ ` g A N g w 1 = ",
"E V N U ( ^ ~ ~ U /  .~ ~ ^ U U ~ ~ ^ Z Z Z ^ ~ U U ^  .Z Z Z  .~ / U / ~ ~ ~ ^ Z Z Z Z A g g Z U U / Z Z Z Z Z A g c g g w 1 + ",
"&.C g U ~ U ~ ~ ^ /  .^ U U / ~ ~ ~ ^ Z Z Z ^ ~ ~ ~ ~  .Z Z Z  .~ ~ ~ ^ U U U I Z Z Z Z Z Z Z ` U U / Z Z A L Z Z g z g N w 1 + ",
"& 9 C g Z A ^ ~ ^ /  .~ ~ ~  .Z Z Z Z ^ ~ U U U U U | g g g | U Z Z Z Z  .~ ~ ~  .` P P / ~ ~ ~ ~ ~ ~ ~ ~ ~ ~ ~ Z g g g g 9.; m ",
"# 0 V g Z A ^ ~ U | A U U U A ` Z Z Z ^ ~ ~ ~ @.~ ~ ^ Z Z Z ^ ~ Z Z Z ` A U / ~  .#.( U / ~ ~ ~ ~ / U U U U U P A g N g g 1 7 i ",
"+ 0 V g Z o.( ~ Z Z Z Z Z Z Z  .~ ~ ~ ~ ~ ~ ~ ~ ~ ~ ~ ~ ~ ~ ~ ~ ~ ~ ~  .Z Z / U U o.h g A U U U / ^ Z Z A g g z g g z g g 1 = % ",
"$ 9 f g g z I +.~ ~ ^ A c P U U Z Z ` U U U / ~  .Z Z ^ ~ ~  .Z Z Z Z Z  .~ ~ ~ U U U U U U / ~ ~ ~ ~ @.~ ~  .A g g g g d & & & ",
"$ 0 V z z ` h I ( ~ ^ Z Z ~ ~ ~ Z Z #.~ ~ ~ ~ ~  .Z Z ^ ~ ~  .Z ` g g Z  .~ ~ ~ ~ ~ ~ ~ ~ ~ ~ ~ ~ ~ ~ U ^ ^ A N g g ` g d & & & ",
"% 0.q.g c ^ A A z c #.@./ ` Z Z Z  .~ P U U ` Z c c z g A U / ~ ~ ~ ~  .Z Z Z Z  .Z Z L A g g A U | A / ^ h N z U U / ' 8.# O O ",
"% - w.g c ~ Z Z U U I L Z / U U A ` Z Z Z Z / U U U U U ^ ~ ~ ~ ~ ~ ~ Z g | U U ^ U U U U U U ^  .` ^  .A z N z ~ ^ A j s 5 i i ",
"..: e.g z /  . .~ ( U Z Z / U U  .Z Z Z Z Z ^ ~ ~ ~ ~ ~ ~ U U U ~ ~ ~  .Z ^ ~ ~ ~ ~ ~ ~ ~ / ~ / `  .~ A ` g A ` ~ U g 7.r.i i i ",
"i > t.} w g A  .N A I L ` @.^ U U U | U U  .Z Z U U U ` Z Z Z  .~ ~ ~ ~ ~ ~  .Z | U U ~ ~  ./ U ~ ( w ( ^ A c A ` g z F $ < < o ",
". i @ ,.w z N A g A I Z #.o.U ^ ~ ~ ^ ( ~  .Z Z I I I A N c c N ( ~ ~ ( ~ @.L g U ~ / U U A o.I P o.w o.| c N ` ` N K y.n O O % ",
"  i @ u.X.h N z g g z @.o.Z ` A ( ( U o.U U U U w w w g z w w w o.^ ( U U | #.Z U ( I L L c X.i.z g g c c O.A A A c } p.< 6 6 6 ",
".   > a.9 z g N B w h g ` ^ ~ P c c N Z Z ~ ~ ~ ~ ~ ~ ~ ~ ~ @.I Z A g U ^ ` g A w w | U | g g g A Z Z I | g g z c s.d.< o > i i ",
"i X X n # t x z h w B c c | U | Z Z ` A Z / ^ U U U U U U U U U g g g | I c N A w w | U | g g ` L A g | I g z K s.2.n o % 7 6 6 ",
". . X : < @ f.u g.q.V j h g g g g z w ` z g g z w h N c c c h.j.j.j.j.j.1 7.v z i.B w o.O.Y A g g g g k.w.l.z.x.c.o 5 & # . , 6 ",
"% %   o < $ % # 6 v.u F D V j h g N c h X.w w X.c z b.g.g.g.n.< < < < < o m.M.N.B.c c c c c N z V.w.g.2 [ < < < < : O 7 6 , . . ",
"O o X # @ & & = 6 , m $ C.Z.s 7.T g g h w w A.S.D.D.F.[ % O O - - O o [ 3 [ < c.G.D.D.D.D.D.D.H.$ n c.@ @ - O O O o < X   m . . "
};
